<svg width="104" height="71" viewBox="0 0 104 71" fill="none" xmlns="http://www.w3.org/2000/svg">
<path d="M86.5054 26.0609C86.508 25.914 86.511 25.7674 86.511 25.6201C86.511 11.5839 75.1323 0.205254 61.0961 0.205254C49.0001 0.205254 38.879 8.65571 36.3115 19.975C33.9174 18.6348 31.1597 17.8673 28.2209 17.8673C19.0511 17.8673 11.6177 25.301 11.6177 34.4705C11.6177 34.8453 11.6346 35.2158 11.659 35.5845C4.8515 38.1115 0 44.6639 0 52.351C0 62.226 8.00541 70.2314 17.8804 70.2314H81.6494C93.9932 70.2314 104 60.2246 104 47.8808C104 37.2046 96.5142 28.2783 86.5054 26.0609Z" fill="#1EA6C6"/>
</svg>
