<svg width="104" height="105" viewBox="0 0 104 105" fill="none" xmlns="http://www.w3.org/2000/svg">
<g clip-path="url(#clip0)">
<path d="M103.154 61.4823L92.0289 51.669L102.76 41.4317C103.155 41.0555 103.317 40.4991 103.187 39.9714C103.056 39.4439 102.653 39.0258 102.128 38.8743L87.8453 34.7525L93.1241 20.9286C93.3181 20.4208 93.2246 19.8488 92.8795 19.4277C92.5342 19.0069 91.9892 18.8011 91.4499 18.888L76.7693 21.2548L75.5753 6.51589C75.5314 5.97436 75.2004 5.49722 74.707 5.26444C74.2136 5.03165 73.6322 5.07817 73.1827 5.38651L60.9412 13.7841L53.505 0.978294C53.2318 0.507857 52.727 0.218201 52.1806 0.218201C51.6342 0.218201 51.1296 0.507857 50.8564 0.978294L42.3205 15.678L27.5554 7.15634C27.0827 6.88354 26.4997 6.88233 26.0262 7.15269C25.5523 7.42304 25.2598 7.92436 25.2584 8.46751L25.2227 23.254L10.4017 22.0324C9.85829 21.9877 9.33017 22.2349 9.01898 22.6812C8.70759 23.1275 8.65925 23.7051 8.89264 24.1963L15.2387 37.569L1.32196 42.7855C0.810902 42.977 0.441418 43.4253 0.352449 43.9614C0.26348 44.4972 0.469246 45.0396 0.891949 45.3839L12.3927 54.7585L2.07129 65.4043C1.69226 65.7953 1.5515 66.3577 1.70242 66.8798C1.85354 67.4018 2.2732 67.804 2.80315 67.9348L17.2362 71.4998L12.5044 85.5177C12.3305 86.0326 12.4463 86.6006 12.8079 87.0078C13.1696 87.4151 13.7223 87.5995 14.2576 87.4917L28.8338 84.5579L30.6053 99.2394C30.6701 99.7787 31.0199 100.242 31.522 100.456C32.0245 100.67 32.6032 100.601 33.0403 100.275L44.9427 91.4093L52.8757 103.509C53.1564 103.951 53.6453 104.218 54.169 104.218C54.1889 104.218 54.2088 104.218 54.2289 104.217C54.7747 104.196 55.2679 103.886 55.5224 103.406L62.4504 90.7299L75.0114 98.6465C75.4731 98.9374 76.0549 98.9613 76.5394 98.7094C77.0232 98.4576 77.3354 97.968 77.3579 97.4253L77.9736 82.6512L92.7355 84.4468C93.2766 84.5126 93.8141 84.2862 94.1428 83.8523C94.4714 83.4182 94.5421 82.8429 94.3284 82.3431L88.5117 68.7343L102.622 64.0618C103.14 63.8902 103.527 63.4567 103.637 62.9245C103.747 62.3927 103.562 61.8429 103.154 61.4823Z" fill="#FFA600"/>
<path d="M51.6649 83.4263C69.061 83.4263 83.1633 69.3349 83.1633 51.9523C83.1633 34.5697 69.061 20.4783 51.6649 20.4783C34.2688 20.4783 20.1665 34.5697 20.1665 51.9523C20.1665 69.3349 34.2688 83.4263 51.6649 83.4263Z" fill="#FFDB2D"/>
<path d="M51.6655 20.4785C50.8765 20.4785 50.0949 20.5084 49.3208 20.5654C65.6216 21.7641 78.4743 35.358 78.4743 51.9525C78.4743 68.5468 65.6216 82.1408 49.3208 83.3396C50.0949 83.3965 50.8767 83.4265 51.6655 83.4265C69.0613 83.4265 83.1637 69.3352 83.1637 51.9527C83.1637 34.5699 69.0613 20.4785 51.6655 20.4785Z" fill="#FFCA00"/>
</g>
<defs>
<clipPath id="clip0">
<rect width="104" height="104" fill="white" transform="translate(0 0.218201)"/>
</clipPath>
</defs>
</svg>
